<svg height="512" viewBox="0 0 64 64" width="512" xmlns="http://www.w3.org/2000/svg"><g id="_16_HTML" data-name="16 HTML"><path d="m50 56h-32v2a4 4 0 0 1 -4 4 4 4 0 0 1 -4-4v-52a4 4 0 0 0 -4-4h37a7 7 0 0 1 7 7z" fill="#c7e2fc"/><path d="m36.571 2h-25.142a24.1 24.1 0 0 0 -2.166 1.7 3.971 3.971 0 0 1 .737 2.3v40.924a22.144 22.144 0 0 0 14 5.076c13.255 0 24-12.088 24-27 0-9.725-4.572-18.247-11.429-23z" fill="#ebf7fe"/><path d="m18 12h44v24h-44z" fill="#70ce90"/><path d="m18 36h27.917a29.769 29.769 0 0 0 2.083-11 29.511 29.511 0 0 0 -2.972-13h-27.028z" fill="#a9e2bc"/><path d="m50 56h-32v2a4 4 0 0 1 -4 4h36a4 4 0 0 0 4-4v-2z" fill="#c7e2fc"/><path d="m6 2a4 4 0 0 1 4 4v8a0 0 0 0 1 0 0h-8a0 0 0 0 1 0 0v-8a4 4 0 0 1 4-4z" fill="#c7e2fc"/><path d="m50 63h-36a5.006 5.006 0 0 1 -5-5v-43h-7a1 1 0 0 1 -1-1v-8a5 5 0 0 1 10 0v52a3 3 0 0 0 6 0v-2a1 1 0 0 1 1-1h36a1 1 0 0 1 1 1v2a5.006 5.006 0 0 1 -5 5zm-32-2h32a3 3 0 0 0 3-3v-1h-34v1a4.973 4.973 0 0 1 -1 3zm-15-48h6v-7a3 3 0 0 0 -6 0z"/><path d="m50 12a1 1 0 0 1 -1-1v-2a6.006 6.006 0 0 0 -6-6h-37a1 1 0 0 1 0-2h37a8.009 8.009 0 0 1 8 8v2a1 1 0 0 1 -1 1z"/><path d="m62 37h-44a1 1 0 0 1 -1-1v-24a1 1 0 0 1 1-1h44a1 1 0 0 1 1 1v24a1 1 0 0 1 -1 1zm-43-2h42v-22h-42z"/><path d="m50 56a1 1 0 0 1 -1-1v-18a1 1 0 0 1 2 0v18a1 1 0 0 1 -1 1z"/><path d="m29 17a1 1 0 0 0 -1 1v5h-5v-5a1 1 0 0 0 -2 0v12a1 1 0 0 0 2 0v-5h5v5a1 1 0 0 0 2 0v-12a1 1 0 0 0 -1-1z"/><path d="m39 17h-6a1 1 0 0 0 0 2h2v11a1 1 0 0 0 2 0v-11h2a1 1 0 0 0 0-2z"/><path d="m49 31a1 1 0 0 1 -1-1v-6.485l-1.063 2.836a1 1 0 0 1 -1.874 0l-1.063-2.836v6.485a1 1 0 0 1 -2 0v-12a1 1 0 0 1 1.937-.351l2.063 5.503 2.063-5.5a1 1 0 0 1 1.937.348v12a1 1 0 0 1 -1 1z"/><path d="m58 31h-5a1 1 0 0 1 -1-1v-12a1 1 0 0 1 2 0v11h4a1 1 0 0 1 0 2z"/></g></svg>