<svg height="472pt" viewBox="-6 0 471 472" width="472pt" xmlns="http://www.w3.org/2000/svg"><path d="m429.777344 64c0-8.835938-7.164063-16-16-16h-200l-59.738282-44.800781c-2.769531-2.078125-6.136718-3.199219-9.597656-3.199219h-98.664062c-8.839844 0-16 7.164062-16 16v96h400zm0 0" fill="#ffd31c"/><path d="m29.777344 112h400v32h-400zm0 0" fill="#e0e0e2"/><path d="m400.105469 448h-340.65625c-7.875 0-14.582031-5.726562-15.808594-13.503906l-42.945313-272c-.7304682-4.621094.601563-9.332032 3.640626-12.890625 3.042968-3.558594 7.488281-5.605469 12.167968-5.605469h426.542969c4.679687 0 9.128906 2.046875 12.167969 5.605469 3.039062 3.558593 4.371094 8.269531 3.640625 12.890625l-42.945313 272c-1.226562 7.777344-7.933594 13.503906-15.804687 13.503906zm0 0" fill="#ffda44"/><g fill="#acabb1"><path d="m229.777344 168h16v16h-16zm0 0"/><path d="m213.777344 152h16v16h-16zm0 0"/><path d="m213.777344 184h16v16h-16zm0 0"/><path d="m229.777344 200h16v16h-16zm0 0"/><path d="m213.777344 216h16v16h-16zm0 0"/><path d="m229.777344 232h16v16h-16zm0 0"/><path d="m213.777344 248h16v16h-16zm0 0"/><path d="m229.777344 264h16v16h-16zm0 0"/><path d="m213.777344 280h16v16h-16zm0 0"/><path d="m229.777344 328h16v16h-16zm0 0"/><path d="m213.777344 344h16v16h-16zm0 0"/><path d="m229.777344 360h16v16h-16zm0 0"/><path d="m229.777344 392h16v16h-16zm0 0"/><path d="m213.777344 408h16v16h-16zm0 0"/><path d="m213.777344 376h16v16h-16zm0 0"/><path d="m229.777344 296h16v16h-16zm0 0"/><path d="m213.777344 312h16v16h-16zm0 0"/><path d="m229.777344 472c-13.257813 0-24-10.746094-24-24v-16h16v16c0 4.417969 3.582031 8 8 8 4.417968 0 8-3.582031 8-8v-16h16v16c0 13.253906-10.746094 24-24 24zm0 0"/></g></svg>