<svg id="Layer_1" xmlns="http://www.w3.org/2000/svg" width="298" height="52"><style>.st0{fill:#3957a7}.st1{fill:#fff}.st2{fill:#f9a533}.st3{fill:#1c3663}.st4{fill:#13457c}.st6{fill:#e0e0e0}.st7{fill:#ccc}.st8{fill:#f58220}.st10{fill:#001722}.st11{fill:#231f20}.st12{fill:#084d95}.st14{fill:#0c489c}.st15{fill:#f90}.st16{fill:#c00}.st17{fill:#fcb340}.st18{fill:#006}</style><path class="st0" d="M123.5 22c0 1.6-1.4 3-3 3h-32c-1.6 0-3-1.4-3-3V4c0-1.6 1.4-3 3-3h32c1.6 0 3 1.4 3 3v18z"/><path class="st1" d="M103 16.7h-1.9l1.2-7.2h1.8l-1.1 7.2zm-3.5-7.2l-1.7 4.9-.2-1-.6-3.2s-.1-.7-.9-.7h-3v.1s.9.2 1.9.8l1.6 6.3h1.9l3-7.2h-2zm14.7 7.2h1.7l-1.5-7.2h-1.5c-.7 0-.9.6-.9.6l-2.7 6.6h1.9l.3-1h2.4l.3 1zm-2.1-2.7l1-2.7.6 2.7h-1.6zm-2.6-2.8l.2-1.6s-.8-.3-1.7-.3c-.9 0-3.1.5-3.1 2.4 0 1.8 2.5 1.8 2.5 2.9s-2.3.8-3.1.2l-.2 1.6s.8.5 2.1.5 3.2-.7 3.2-2.5-2.6-2.1-2.6-2.9c0-.9 1.9-.8 2.7-.3z"/><path class="st2" d="M97.6 13.3l-.6-3.2s-.1-.7-.9-.7h-3v.1s1.4.3 2.7 1.4c1.3 1.1 1.8 2.4 1.8 2.4z"/><path class="st3" d="M80.4 22c0 1.6-1.4 3-3 3H45.5c-1.6 0-3-1.4-3-3V4c0-1.6 1.4-3 3-3h32c1.6 0 3 1.4 3 3l-.1 18z"/><path class="st1" d="M60.9 10.8c-.2 0-.5.1-.6.3 0 0-1.3 2.2-1.4 2.4-.1.1-.1 0-.1 0l-.3-2.3c0-.2-.2-.3-.5-.3h-.8c-.2 0-.3.1-.2.3 0 0 .6 3.4.7 4.2.1.5 0 .6 0 .6l-.8 1.4c-.1.2 0 .3.1.3h.9c.2 0 .5-.1.6-.3l3.4-6.1s.3-.5 0-.5h-1M50 12c-.3.2-.7.3-1.1.3h-.2c-.2 0-.3-.1-.2-.3l.2-1.1c0-.2.2-.3.5-.3h.2c.3 0 .6.1.8.2.1.1.2.3.2.6 0 .1-.1.5-.4.6m1.9-1.7c-.1-.3-.3-.4-.5-.5-.2-.2-.4-.2-.8-.3-.3 0-.7-.1-1-.1h-1.8c-.3-.1-.4.1-.5.3L46 15.1c0 .2.1.3.2.3h.9c.2 0 .3-.1.5-.3l.3-1.3c0-.2.2-.3.5-.3h.2c1 0 1.9-.2 2.5-.7.6-.5.9-1 .9-1.7.1-.4 0-.6-.1-.8m4.2.8c-.3-.2-.8-.2-1.6-.2-.3 0-.7 0-1 .1-.2 0-.2 0-.5.1-.3-.1-.3.2-.3.2l-.1.5c-.1.3.1.3.1.2.1 0 .2-.1.6-.1.2-.1.6-.1.8-.1.3 0 .6 0 .8.1.1.1.2.2.2.5v.1s0 .1-.1.1c-.5 0-.8.1-1.3.1-.5.1-.8.1-1.1.3-.3.1-.6.3-.8.6-.2.2-.3.5-.3.9s.1.6.3.8c.2.2.6.3.9.3h.6c.1 0 .2-.1.5-.1.1 0 .2-.1.3-.2.1-.1.2-.1.3-.2v.1c0 .1.1.3.2.3h.9c.1 0 .3-.1.3-.3l.7-2.7v-.4c.1-.6-.1-.9-.4-1zm-1.6 3.3c-.1.1-.2.1-.3.2-.1.1-.3.1-.5.1s-.3 0-.5-.1c-.1-.1-.2-.2-.1-.3 0-.2 0-.3.1-.5.1-.1.2-.2.3-.2s.3-.1.6-.1.6-.1.7-.1c0 0 .1 0 .1.1s-.1.6-.2.8c-.1 0-.1 0-.2.1zm17.4-3.3c-.3-.2-.8-.2-1.6-.2-.3 0-.7 0-1 .1-.2 0-.3 0-.5.1-.2-.1-.3.2-.3.2l-.1.5c-.2.2 0 .2 0 .2.1 0 .2-.1.6-.1.2-.1.6-.1.8-.1.3 0 .6 0 .8.1.2.1.2.2.2.3v.1s0 .1-.1.1c-.5 0-.8.1-1.3.1-.5.1-.8.1-1.1.3-.3.1-.6.3-.8.6-.1.2-.2.6-.2.9s.1.6.3.8c.2.2.6.3.9.3h.6c.1 0 .2-.1.5-.1.1 0 .2-.1.3-.2.1-.1.2-.1.3-.2v.1c0 .1.1.3.2.3h.8c.2 0 .3-.1.3-.3l.7-2.7v-.4c.2-.4 0-.7-.3-.8zm-1.5 3.3c-.1.1-.2.1-.3.2-.1.1-.3.1-.5.1s-.3 0-.5-.1-.2-.2-.1-.3c0-.2 0-.3.1-.5.1-.1.2-.2.3-.2s.3-.1.6-.1c.2 0 .6-.1.7-.1 0 0 .1 0 .1.1s-.1.6-.2.7c-.1.1-.2.1-.2.2zm-4.6-2.3c-.2.2-.6.3-1.1.3h-.2c-.2 0-.3-.1-.2-.3l.2-1.1c0-.2.2-.3.5-.3h.3c.3 0 .6.1.8.1.1.1.2.3.2.6-.1.1-.3.5-.5.7m1.8-1.8c-.1-.3-.2-.4-.4-.6-.2-.1-.5-.2-.8-.2-.3 0-.7-.1-1-.1h-1.9c-.2 0-.3.1-.5.3l-1.1 5.5c0 .2.1.3.2.3h.9c.2 0 .3-.1.5-.3l.3-1.3c0-.2.2-.3.5-.3h.2c1 0 1.9-.2 2.5-.7s.9-1 .9-1.7c0-.5-.1-.7-.3-.9m7.6-.5c0-.2-.1-.3-.2-.3h-.8c-.1 0-.3.1-.3.2v.3l-1 4.9v.2c0 .1.1.3.2.3h.8c.1 0 .3-.1.3-.2v-.1l1-5.3zm.9.7s-.1.1 0 0h-.2c-.1 0-.1 0-.2-.1 0 0-.1-.1-.1-.2v-.4h-.1v-.1h.2v-.2h.1v.2h.3v.1h-.3v.5h.1l.2.2v-.1.1zm1.4 0l-.1-.5v-.2h-.2s-.1 0-.1.1v.6h-.2v-.7h-.2s-.1 0-.1.1v.7h-.1v-.9h.1v.1l.1-.1h.2l.1.1c.1 0 .1-.1.1-.1h.1c.1 0 .1 0 .2.1 0 .1.1.1.1.2v.5z"/><path class="st4" d="M166.5 22c0 1.6-1.4 3-3 3h-32c-1.6 0-3-1.4-3-3V4c0-1.6 1.4-3 3-3h32c1.6 0 3 1.4 3 3v18z"/><path d="M209.6 22c0 1.6-1.4 3-3 3h-32c-1.6 0-3-1.4-3-3V4c0-1.6 1.4-3 3-3h32c1.6 0 3 1.4 3 3v18z" fill="#4e9fdd"/><path class="st6" d="M217.6 24.9c-1.6 0-2.9-1.3-2.9-2.9V4c0-1.6 1.3-2.9 2.9-2.9h32c1.6 0 2.9 1.3 2.9 2.9v18c0 1.6-1.3 2.9-2.9 2.9h-32z"/><path class="st7" d="M249.6 1.2c1.5 0 2.7 1.3 2.7 2.7V22c0 1.5-1.3 2.7-2.7 2.7h-32c-1.5 0-2.7-1.3-2.7-2.7V4c0-1.5 1.3-2.7 2.7-2.7l32-.1m0-.2h-32c-1.6 0-3 1.4-3 3v18c0 1.6 1.4 3 3 3h32c1.6 0 3-1.4 3-3V4c-.1-1.6-1.4-3-3-3z"/><path class="st8" d="M225 25h26.3c.7 0 1.3-.6 1.3-1.3v-9C250 16.3 240.4 21.9 225 25z"/><radialGradient id="SVGID_1_" cx="2690.657" cy="3001.317" r="6.042" gradientTransform="matrix(.4406 0 0 .4453 -951.37 -1323.508)" gradientUnits="userSpaceOnUse"><stop offset=".006" stop-color="#ffeee0"/><stop offset=".11" stop-color="#fee9d7"/><stop offset=".279" stop-color="#fddbbf"/><stop offset=".493" stop-color="#fbc597"/><stop offset=".744" stop-color="#f8a560"/><stop offset="1" stop-color="#f48120"/></radialGradient><path d="M234.1 10.4c-1.5 0-2.7 1.1-2.7 2.6s1.1 2.7 2.7 2.7c1.5 0 2.7-1.1 2.7-2.6.1-1.6-1.2-2.7-2.7-2.7z" fill="url(#SVGID_1_)"/><path class="st10" d="M218.8 10.5h-1.5v5.1h1.5c.8 0 1.4-.2 1.8-.6.6-.5.9-1.3.9-1.9.1-1.6-1.1-2.6-2.7-2.6zm1.2 3.8c-.3.2-.7.5-1.4.5h-.2v-3.4h.2c.7 0 1 .1 1.4.5.3.3.6.8.6 1.3-.1.3-.3.7-.6 1.1zm2-3.8h1v5.1h-1v-5.1zm3.4 1.9c-.6-.2-.8-.3-.8-.7s.3-.6.7-.6c.3 0 .6.1.8.5l.6-.7c-.5-.3-.9-.6-1.5-.6-.9 0-1.6.6-1.6 1.5 0 .7.3 1 1.3 1.4.3.1.6.2.7.3.2.1.3.3.3.6 0 .5-.3.7-.8.7s-.8-.2-1-.7l-.7.6c.5.7 1 1 1.7 1 1 0 1.7-.7 1.7-1.7.1-.8-.2-1.2-1.4-1.6zm1.8.6c0 1.5 1.1 2.6 2.6 2.6.5 0 .8-.1 1.3-.3v-1.1c-.3.3-.8.6-1.1.6-1 0-1.7-.7-1.7-1.7s.7-1.7 1.6-1.7c.5 0 .8.1 1.3.6v-1.3c-.5-.2-.8-.3-1.3-.3-1.5 0-2.7 1.1-2.7 2.6zm11.8.9l-1.2-3.4h-1.2l2.2 5.1h.6l2.2-5.1h-1.2l-1.4 3.4zm3 1.6h2.8v-.8h-1.9v-1.4h1.7v-.9h-1.7v-1.1h1.9v-.8H242v5zm6.6-3.5c0-.9-.7-1.5-1.8-1.5h-1.5v5.1h1v-2.1h.1l1.4 2.1h1.3l-1.6-2.2c.8-.2 1.1-.6 1.1-1.4zm-1.9.8h-.3v-1.5h.3c.6 0 .9.2.9.8 0 .4-.3.7-.9.7z"/><path class="st11" d="M249.3 10.8c0-.1-.1-.1-.1-.1h-.1v.5h.1l.1-.4v.3h.1l-.1-.3zm-.1 0v-.1.1z"/><path class="st11" d="M249.2 10.5c-.2 0-.3.2-.3.3 0 .2.2.3.3.3.2 0 .3-.2.3-.3.1-.1-.1-.3-.3-.3zm0 .7c-.2 0-.3-.1-.3-.3s.1-.3.3-.3c.1 0 .3.1.3.3.1.2-.2.3-.3.3z"/><path class="st0" d="M103.5 48c0 1.6-1.4 3-3 3h-32c-1.6 0-3-1.4-3-3V30c0-1.6 1.4-3 3-3h32c1.6 0 3 1.4 3 3v18z"/><path class="st1" d="M83 42.7h-1.9l1.2-7.2h1.8L83 42.7zm-3.5-7.2l-1.7 4.9-.2-1-.6-3.2s-.1-.7-.9-.7h-3v.1s.9.2 1.9.8l1.6 6.3h1.9l3-7.2h-2zm14.7 7.2h1.7l-1.5-7.2h-1.5c-.7 0-.9.6-.9.6l-2.7 6.6h1.9l.3-1h2.4l.3 1zM92.1 40l1-2.7.6 2.7h-1.6zm-2.6-2.8l.2-1.6s-.8-.3-1.7-.3c-.9 0-3.1.5-3.1 2.4 0 1.8 2.5 1.8 2.5 2.9s-2.3.8-3.1.2l-.2 1.6s.8.5 2.1.5 3.2-.7 3.2-2.5-2.6-2.1-2.6-2.9c0-.9 1.9-.8 2.7-.3z"/><path class="st2" d="M77.6 39.3l-.6-3.2s-.1-.7-.9-.7h-3v.1s1.4.3 2.7 1.4c1.3 1.1 1.8 2.4 1.8 2.4z"/><path class="st3" d="M60.4 48c0 1.6-1.4 3-3 3H25.5c-1.6 0-3-1.4-3-3V30c0-1.6 1.4-3 3-3h32c1.6 0 3 1.4 3 3l-.1 18z"/><path class="st1" d="M40.9 36.8c-.2 0-.5.1-.6.3 0 0-1.3 2.2-1.4 2.4-.1.1-.1 0-.1 0l-.3-2.3c0-.2-.2-.3-.5-.3h-.8c-.2 0-.3.1-.2.3 0 0 .6 3.4.7 4.2.1.5 0 .6 0 .6l-.8 1.4c-.1.2 0 .3.1.3h.9c.2 0 .5-.1.6-.3l3.4-6.1s.3-.5 0-.5h-1M30 38c-.3.2-.7.3-1.1.3h-.2c-.2 0-.3-.1-.2-.3l.2-1.1c0-.2.2-.3.5-.3h.2c.3 0 .6.1.8.2.1.1.2.3.2.6 0 .1-.1.5-.4.6m1.9-1.7c-.1-.3-.3-.4-.5-.5-.2-.2-.4-.2-.8-.3-.3 0-.7-.1-1-.1h-1.8c-.3-.1-.4.1-.5.3L26 41.1c0 .2.1.3.2.3h.9c.2 0 .3-.1.5-.3l.3-1.3c0-.2.2-.3.5-.3h.2c1 0 1.9-.2 2.5-.7s.9-1 .9-1.7c.1-.4 0-.6-.1-.8m4.2.8c-.3-.2-.8-.2-1.6-.2-.3 0-.7 0-1 .1-.2 0-.2 0-.5.1-.3-.1-.3.2-.3.2l-.1.5c-.1.3.1.3.1.2.1 0 .2-.1.6-.1.2-.1.6-.1.8-.1.3 0 .6 0 .8.1.1.1.2.2.2.5v.1s0 .1-.1.1c-.5 0-.8.1-1.3.1-.5.1-.8.1-1.1.3-.3.1-.6.3-.8.6-.2.2-.3.5-.3.9s.1.6.3.8c.2.2.6.3.9.3h.6c.1 0 .2-.1.5-.1.1 0 .2-.1.3-.2.1-.1.2-.1.3-.2v.1c0 .1.1.3.2.3h.9c.1 0 .3-.1.3-.3l.7-2.7v-.4c.1-.6-.1-.9-.4-1zm-1.6 3.3c-.1.1-.2.1-.3.2-.1.1-.3.1-.5.1s-.3 0-.5-.1c-.1-.1-.2-.2-.1-.3 0-.2 0-.3.1-.5.1-.1.2-.2.3-.2.1 0 .3-.1.6-.1s.6-.1.7-.1c0 0 .1 0 .1.1s-.1.6-.2.8c-.1 0-.1 0-.2.1zm17.4-3.3c-.3-.2-.8-.2-1.6-.2-.3 0-.7 0-1 .1-.2 0-.3 0-.5.1-.2-.1-.3.2-.3.2l-.1.5c-.2.2 0 .2 0 .2.1 0 .2-.1.6-.1.2-.1.6-.1.8-.1.3 0 .6 0 .8.1.2.1.2.2.2.3v.1s0 .1-.1.1c-.5 0-.8.1-1.3.1-.5.1-.8.1-1.1.3-.3.1-.6.3-.8.6-.1.2-.2.6-.2.9 0 .3.1.6.3.8.2.2.6.3.9.3h.6c.1 0 .2-.1.5-.1.1 0 .2-.1.3-.2.1-.1.2-.1.3-.2v.1c0 .1.1.3.2.3h.8c.2 0 .3-.1.3-.3l.7-2.7v-.4c.2-.4 0-.7-.3-.8zm-1.5 3.3c-.1.1-.2.1-.3.2-.1.1-.3.1-.5.1s-.3 0-.5-.1-.2-.2-.1-.3c0-.2 0-.3.1-.5.1-.1.2-.2.3-.2s.3-.1.6-.1c.2 0 .6-.1.7-.1 0 0 .1 0 .1.1s-.1.6-.2.7c-.1.1-.2.1-.2.2zm-4.6-2.3c-.2.2-.6.3-1.1.3h-.2c-.2 0-.3-.1-.2-.3l.2-1.1c0-.2.2-.3.5-.3h.3c.3 0 .6.1.8.1.1.1.2.3.2.6-.1.1-.3.5-.5.7m1.8-1.8c-.1-.3-.2-.4-.4-.6-.2-.1-.5-.2-.8-.2s-.7-.1-1-.1h-1.9c-.2 0-.3.1-.5.3l-1.1 5.5c0 .2.1.3.2.3h.9c.2 0 .3-.1.5-.3l.3-1.3c0-.2.2-.3.5-.3h.2c1 0 1.9-.2 2.5-.7.6-.5.9-1 .9-1.7 0-.5-.1-.7-.3-.9m7.6-.5c0-.2-.1-.3-.2-.3h-.8c-.1 0-.3.1-.3.2v.3l-1 4.9v.2c0 .1.1.3.2.3h.8c.1 0 .3-.1.3-.2v-.1l1-5.3zm.9.7s-.1.1 0 0h-.2c-.1 0-.1 0-.2-.1 0 0-.1-.1-.1-.2v-.4h-.1v-.1h.2v-.2h.1v.2h.3v.1h-.3v.5h.1l.2.2c0-.1 0-.1 0 0zm1.4 0l-.1-.5v-.2h-.2s-.1 0-.1.1v.6h-.2v-.7h-.2s-.1 0-.1.1v.7h-.1v-.9h.1v.1l.1-.1h.2l.1.1c.1 0 .1-.1.1-.1h.1c.1 0 .1 0 .2.1 0 .1.1.1.1.2v.5z"/><path class="st4" d="M146.5 48c0 1.6-1.4 3-3 3h-32c-1.6 0-3-1.4-3-3V30c0-1.6 1.4-3 3-3h32c1.6 0 3 1.4 3 3v18z"/><path class="st12" d="M189.6 48c0 1.6-1.4 3-3 3h-32c-1.6 0-3-1.4-3-3V30c0-1.6 1.4-3 3-3h32c1.6 0 3 1.4 3 3v18z"/><path class="st1" d="M172.2 46.9c4.3 0 8.2-3.5 8.2-7.9 0-4.7-3.9-8-8.2-8h-3.7c-4.3 0-7.9 3.3-7.9 8 0 4.3 3.5 7.9 7.9 7.9h3.7z"/><path class="st12" d="M170.1 43.2v-8.5c1.7.7 3 2.3 3 4.3 0 1.9-1.3 3.7-3 4.2M164 39c0-1.9 1.3-3.7 3-4.3v8.6c-1.8-.6-3-2.4-3-4.3m4.5-7.3c-4 0-7.2 3.2-7.2 7.3 0 4 3.2 7.2 7.2 7.3 4 0 7.2-3.2 7.2-7.3 0-4-3.2-7.3-7.2-7.3"/><path class="st6" d="M197.6 50.9c-1.6 0-2.9-1.3-2.9-2.9V30c0-1.6 1.3-2.9 2.9-2.9h32c1.6 0 2.9 1.3 2.9 2.9v18c0 1.6-1.3 2.9-2.9 2.9h-32z"/><path class="st7" d="M229.6 27.2c1.5 0 2.7 1.3 2.7 2.7V48c0 1.5-1.3 2.7-2.7 2.7h-32c-1.5 0-2.7-1.3-2.7-2.7V30c0-1.5 1.3-2.7 2.7-2.7l32-.1m0-.2h-32c-1.6 0-3 1.4-3 3v18c0 1.6 1.4 3 3 3h32c1.6 0 3-1.4 3-3V30c-.1-1.6-1.4-3-3-3z"/><path class="st8" d="M205 51h26.3c.7 0 1.3-.6 1.3-1.3v-9C230 42.3 220.4 47.9 205 51z"/><radialGradient id="SVGID_2_" cx="2645.264" cy="3059.705" r="6.042" gradientTransform="matrix(.4406 0 0 .4453 -951.37 -1323.508)" gradientUnits="userSpaceOnUse"><stop offset=".006" stop-color="#ffeee0"/><stop offset=".11" stop-color="#fee9d7"/><stop offset=".279" stop-color="#fddbbf"/><stop offset=".493" stop-color="#fbc597"/><stop offset=".744" stop-color="#f8a560"/><stop offset="1" stop-color="#f48120"/></radialGradient><path d="M214.1 36.4c-1.5 0-2.7 1.1-2.7 2.6s1.1 2.7 2.7 2.7c1.5 0 2.7-1.1 2.7-2.6.1-1.6-1.2-2.7-2.7-2.7z" fill="url(#SVGID_2_)"/><path class="st10" d="M198.8 36.5h-1.5v5.1h1.5c.8 0 1.4-.2 1.8-.6.6-.5.9-1.3.9-1.9.1-1.6-1.1-2.6-2.7-2.6zm1.2 3.8c-.3.2-.7.5-1.4.5h-.2v-3.4h.2c.7 0 1 .1 1.4.5.3.3.6.8.6 1.3-.1.3-.3.7-.6 1.1zm2-3.8h1v5.1h-1v-5.1zm3.4 1.9c-.6-.2-.8-.3-.8-.7s.3-.6.7-.6c.3 0 .6.1.8.5l.6-.7c-.5-.3-.9-.6-1.5-.6-.9 0-1.6.6-1.6 1.5 0 .7.3 1 1.3 1.4.3.1.6.2.7.3.2.1.3.3.3.6 0 .5-.3.7-.8.7s-.8-.2-1-.7l-.7.6c.5.7 1 1 1.7 1 1 0 1.7-.7 1.7-1.7.1-.8-.2-1.2-1.4-1.6zm1.8.6c0 1.5 1.1 2.6 2.6 2.6.5 0 .8-.1 1.3-.3v-1.1c-.3.3-.8.6-1.1.6-1 0-1.7-.7-1.7-1.7s.7-1.7 1.6-1.7c.5 0 .8.1 1.3.6v-1.3c-.5-.2-.8-.3-1.3-.3-1.5 0-2.7 1.1-2.7 2.6zm11.8.9l-1.2-3.4h-1.2l2.2 5.1h.6l2.2-5.1h-1.2l-1.4 3.4zm3 1.6h2.8v-.8h-1.9v-1.4h1.7v-.9h-1.7v-1.1h1.9v-.8H222v5zm6.6-3.5c0-.9-.7-1.5-1.8-1.5h-1.5v5.1h1v-2.1h.1l1.4 2.1h1.3l-1.6-2.2c.8-.2 1.1-.6 1.1-1.4zm-1.9.8h-.3v-1.5h.3c.6 0 .9.2.9.8 0 .4-.3.7-.9.7z"/><path class="st11" d="M229.3 36.8c0-.1-.1-.1-.1-.1h-.1v.5h.1v-.3l.1.2h.1l-.1-.2v-.1z"/><path class="st11" d="M229.2 36.5c-.2 0-.3.2-.3.3 0 .2.2.3.3.3.2 0 .3-.2.3-.3.1-.1-.1-.3-.3-.3zm0 .7c-.2 0-.3-.1-.3-.3s.1-.3.3-.3c.1 0 .3.1.3.3.1.2-.2.3-.3.3z"/><path class="st14" d="M275.5 48c0 1.6-1.4 3-3 3h-32c-1.6 0-3-1.4-3-3V30c0-1.6 1.4-3 3-3h32c1.6 0 3 1.4 3 3v18z"/><path class="st1" d="M265.1 40c.1 1.8.1 3.7 0 5.6-.1.7-.5 1.5-1.1 1.8-.5.3-1.1.3-1.8.3h-2.4V32.3c.1-1 .9-1.9 1.8-2.2 1.1-.1 2.3-.1 3.5-.1l.1.8V40h-.1zm-17.3-.5v-7.4c.1-.8.8-1.6 1.6-1.9 1.1-.3 2.5-.1 3.8-.2.1 1.1 0 2.6 0 3.8l.1 9.5c-.1 1.5.3 3.4-1.4 4.2-1.1.6-2.6.2-4 .3v-8.3h-.1zm11.4-8.4V46c-.2.7-.8 1.5-1.5 1.7-1.1.3-2.5.2-3.8.2l-.1-15.7c.1-.7.6-1.4 1.1-1.7.5-.3 1-.3 1.6-.5h2.5l.2 1.1z"/><path class="st14" d="M247.8 39.8c.5.7 1.1 1.1 1.9 1.1 1 .1 2.3.2 3-.8.5-.5.2-1.1.2-1.8v-1.1c-.6-.1-1 0-1.7 0-.3 1.3.6 2.6-.9 3.3-.3.1-.8 0-1.1-.2-.6-.1-.2-1-.9-.8l-.5-.1v.4zm11.1-2.5c.1.2 0 .3 0 .6-.9-.2-2.1-.6-2.9.1-.3.3-.5.7-.5 1.3.1.6.5 1 .9 1.3.8.2 1.6 0 2.3-.1 0 .1.1.3 0 .5h-3.4c-.6-.1-1-.5-1.4-1-.2-.6-.1-1.4.3-1.8.3-.5.9-.7 1.5-.7h3.2v-.2zm6.2 2.7c-.1.3-.3.7-.8.8h-4.2l-.1-.1v-3.5h2.6c.8.1 1.8-.2 2.2.6.1.2.1.7-.1.8-.1.2-.3.2-.5.3.3.1.7.3.8.7v.4h.1zm-3.5-2.5c-.1.3-.1.8 0 1.1.7 0 1.5.2 1.8-.2.1-.2.1-.5 0-.7-.6-.3-1.3-.1-1.8-.2zm1.6 1.7c-.6-.1-1.1-.1-1.7 0 0 .5 0 .8.1 1.3.6 0 1.3.1 1.8-.2.1-.1.2-.3.2-.6-.1-.2-.2-.4-.4-.5z"/><path class="st1" d="M204 7.5c0-1.5-1.2-2.7-2.7-2.7h-9.7v5.3h9.7c1.5 0 2.7-1.2 2.7-2.6zm0 5.6c0-1.5-1.2-2.7-2.7-2.7h-9.7v5.3h9.7c1.5.1 2.7-1.1 2.7-2.6zm-19.6-2.7v-.3h7.1v-.4c0-2.7-2.2-4.8-4.8-4.8h-4.5c-2.7 0-4.8 2.2-4.8 4.8V11c0 2.7 2.2 4.8 4.8 4.8h4.5c2.7 0 4.8-2.2 4.8-4.8v-.5h-7.1v-.1zm-4.6 9.9c-.3.6-.7.9-1.3.9-.8 0-1.4-.7-1.4-1.5s.6-1.5 1.4-1.5c.6 0 1.1.4 1.3.9h-.3c-.2-.4-.5-.6-.9-.6-.6 0-1.1.5-1.1 1.2s.5 1.2 1 1.2c.4 0 .6-.2.9-.6h.4zm3 .5c-.2 0-.2-.1-.2-.2v-1.5c0-.8-.6-.9-1.2-.9-.7 0-1.2.3-1.3 1h.4c0-.5.4-.7.8-.7s.8.1.8.6c0 .3-.2.4-.5.4-.8.1-1.7.1-1.7.9 0 .6.5.8 1 .8.6 0 .9-.2 1.1-.6 0 .3.1.5.4.5h.2v-.3h.2zm-.6-.8c0 .6-.5.9-1.1.9-.4 0-.7-.2-.7-.6 0-.6.8-.6 1.5-.7.1 0 .3 0 .3-.1v.5zm1.1-1.7h.4v.4c.1-.2.4-.4.8-.4v.3c-.2 0-.4.1-.5.2-.2.2-.3.4-.3.7v1.7h-.4v-2.9zm9.6-.1c-.5 0-.9.2-1.1.6v-1h-.4v3.4h.4v-.5c.3.4.7.6 1.1.6.8 0 1.5-.7 1.5-1.5.1-.9-.6-1.6-1.5-1.6zm.1 2.7c-.6 0-1.2-.5-1.2-1.1 0-.7.5-1.2 1.2-1.2.6 0 1.1.5 1.1 1.2 0 .5-.5 1.1-1.1 1.1zm1.6-3.1h.4v3.4h-.4v-3.4zm2.1 3.1c-.6 0-1.1-.5-1.1-1h2.6c0-.4-.1-.6-.2-.8-.3-.5-.8-.8-1.3-.8-.8 0-1.5.7-1.5 1.5s.7 1.5 1.5 1.5c.6 0 1.2-.4 1.4-1h-.4c-.1.3-.6.6-1 .6zm0-2.4c.5 0 1 .4 1.1 1h-2.2c.1-.6.6-1 1.1-1zm5.8 2.4c-.6 0-1.1-.5-1.1-1h2.6c0-.4-.1-.6-.2-.8-.3-.5-.8-.8-1.3-.8-.8 0-1.5.7-1.5 1.5s.7 1.5 1.5 1.5c.6 0 1.2-.4 1.4-1h-.4c-.1.3-.5.6-1 .6zm0-2.4c.5 0 1 .4 1.1 1h-2.2c.1-.6.6-1 1.1-1zm-15 2.4c-.6 0-1.1-.5-1.1-1h2.6c0-.4-.1-.6-.2-.8-.3-.5-.8-.8-1.3-.8-.8 0-1.5.7-1.5 1.5s.7 1.5 1.5 1.5c.6 0 1.2-.4 1.4-1h-.4c-.1.3-.6.6-1 .6zm0-2.4c.5 0 1 .4 1.1 1h-2.2c.1-.6.6-1 1.1-1z"/><path class="st1" d="M185.1 18.3h1v.3h-1v1.8c0 .3 0 .4.3.4h.7v.3h-.7c-.5 0-.7-.2-.7-.7v-1.8h-.1v-.3h.1v-.5h.4v.5zm15.4 0v1.6c0 .6-.3 1-.9 1-.6 0-.9-.4-.9-1v-1.6h-.4v1.6c0 .9.4 1.4 1.2 1.4h.2c.8 0 1.2-.5 1.2-1.4v-1.6h-.4z"/><g id="layer1"><g id="g10305"><path id="path2268" class="st15" d="M158.9 13c0 3.8-3.1 6.8-6.8 6.8-3.8 0-6.8-3.1-6.8-6.8 0-3.8 3.1-6.8 6.8-6.8s6.8 3 6.8 6.8z"/><path id="path1350" class="st16" d="M142.9 6.2c-3.7 0-6.8 3.1-6.8 6.8 0 3.8 3.1 6.8 6.8 6.8 1.8 0 3.4-.7 4.6-1.8l.7-.7h-1.4c-.2-.2-.4-.5-.5-.7h2.4c.1-.2.3-.5.4-.7h-3.2c-.1-.2-.2-.5-.3-.7h3.8c.2-.7.4-1.4.4-2.2 0-.5-.1-1-.2-1.5h-4.2c.1-.2.1-.5.2-.7h3.8c-.1-.3-.2-.5-.3-.7h-3.2c.1-.2.2-.5.4-.7h2.4c-.2-.3-.3-.5-.5-.7h-1.3c.2-.2.4-.5.7-.7-1.3-1.1-2.9-1.8-4.7-1.8z"/><path id="use9412" class="st17" d="M158.2 16.6c.1 0 .2 0 .2.1v.2s0 .1-.1.1h-.2s-.1 0-.1-.1v-.2s0-.1.2-.1m0 0c-.1 0-.1.1-.2.1v.2s0 .1.1.1h.2s.1 0 .1-.1v-.2s-.1-.1-.2-.1c.1 0 0 0 0 0m-.1.3v-.2h.2l-.2.2.1-.1-.1.1m.1-.1c.1 0 .1 0 0 0 .1-.1.1-.1 0 0 .1-.1 0-.1 0 0 0-.1 0-.1 0 0"/></g><g id="g16480"><g id="g13802" transform="translate(-13.744 15.994)"><path id="path13804" class="st18" d="M158.9-1l.1-.6h-.2c-.3 0-.3-.1-.3-.2l.2-1.2h.4l.1-.7h-.4l.1-.4h-.8s-.4 2.4-.4 2.7c0 .4.2.6.6.6.4-.1.6-.2.6-.2z"/><path id="path13806" class="st18" d="M159.2-2.2c0 1 .7 1.3 1.3 1.3.5 0 .8-.1.8-.1l.1-.7s-.5.2-.8.2c-.8 0-.6-.6-.6-.6h1.5s.1-.5.1-.7c0-.5-.3-1.1-1.1-1.1s-1.3.8-1.3 1.7zm1.2-1c.4 0 .3.5.3.5h-.8c.1-.1.1-.5.5-.5z"/><path id="path13808" class="st18" d="M165-1l.1-.8s-.4.2-.6.2c-.5 0-.7-.4-.7-.8 0-.9.4-1.3.9-1.3.4 0 .7.2.7.2l.1-.8s-.4-.3-.7-.3c-1.1 0-1.8.8-1.8 2.2 0 .9.5 1.5 1.3 1.5.3 0 .7-.1.7-.1z"/><path id="path13810" class="st18" d="M154.9-3.9c-.5 0-.9.2-.9.2l-.1.6s.3-.1.8-.1c.3 0 .5 0 .5.3v.2h-.3c-.7 0-1.3.3-1.3 1.1 0 .6.4.8.7.8.5 0 .7-.3.7-.3v.3h.6l.3-2c0-1.1-.7-1.1-1-1.1zm.1 1.6c0 .1 0 .7-.5.7-.2 0-.3-.2-.3-.3 0-.2.1-.4.6-.4h.2z"/><path id="path13812" class="st18" d="M156.6-1c.2 0 1.1 0 1.1-.9s-.9-.7-.9-1.1c0-.2.1-.2.4-.2h.5l.1-.6s-.3-.1-.7-.1c-.5 0-1.1.2-1.1.9 0 .8.9.7.9 1.1 0 .2-.3.3-.5.3-.3 0-.6-.1-.6-.1v.7h.8z"/><path id="path13814" class="st18" d="M171-4.5l-.1 1s-.3-.4-.7-.4c-.8 0-1.2.8-1.2 1.7 0 .6.3 1.2.9 1.2.4 0 .7-.3.7-.3v.3h.7l.6-3.5h-.9zm-.3 1.9c0 .4-.2.9-.6.9-.3 0-.4-.2-.4-.6 0-.6.3-.9.6-.9s.4.2.4.6z"/><path id="path13816" class="st18" d="M151-1l.4-2.6.1 2.6h.5l.9-2.6-.4 2.6h.7l.6-3.5h-1.2l-.7 2.1v-2.1h-1.1l-.5 3.5h.7z"/><path id="path13818" class="st18" d="M162.2-1c.2-1.2.3-2.2.9-2 .1-.5.3-.9.4-1.1h-.2c-.3 0-.8.7-.8.7l.1-.4h-.7l-.5 2.8h.8z"/><g id="use14699" transform="translate(845.3)"><path id="path13810_1_" class="st18" d="M-678.7-3.9c-.5 0-.9.2-.9.2l-.1.6s.3-.1.8-.1c.3 0 .5 0 .5.3v.2h-.3c-.7 0-1.3.3-1.3 1.1 0 .6.4.8.7.8.5 0 .7-.3.7-.3v.3h.6l.3-2c0-1.1-.8-1.1-1-1.1zm.1 1.6c0 .1 0 .7-.5.7-.2 0-.3-.2-.3-.3 0-.2.1-.4.6-.4h.2z"/></g><path id="use14701" class="st18" d="M168.3-1c.1-.9.3-2.1.9-2 .1-.5 0-.5-.2-.5h-.4l.1-.4h-.7l-.5 2.9h.8z"/></g><g id="g10289"><path id="path4157" class="st1" d="M145.4 14.7l.1-.6h-.2c-.3 0-.3-.1-.3-.2l.2-1.3h.4l.1-.7h-.4l.1-.4h-.7s-.4 2.4-.4 2.7c0 .4.2.6.6.6.2 0 .4 0 .5-.1z"/><path id="path4155" class="st1" d="M145.6 13.6c0 1 .7 1.3 1.3 1.3.5 0 .8-.1.8-.1l.1-.7s-.4.2-.8.2c-.8 0-.6-.6-.6-.6h1.5s.1-.5.1-.7c0-.5-.2-1.1-1-1.1-.9 0-1.4.8-1.4 1.7zm1.3-1.1c.4 0 .3.5.3.5h-.8s.1-.5.5-.5z"/><path id="path4151" class="st1" d="M151.5 14.7l.1-.8s-.4.2-.6.2c-.5 0-.7-.4-.7-.8 0-.9.4-1.3.9-1.3.4 0 .7.2.7.2l.1-.8s-.4-.2-.8-.2c-.8 0-1.7.7-1.7 2.1 0 .9.4 1.5 1.3 1.5.3 0 .7-.1.7-.1z"/><path id="path4149" class="st1" d="M141.4 11.9c-.5 0-.9.2-.9.2l-.1.6s.3-.1.8-.1c.3 0 .5 0 .5.3v.2h-.3c-.6 0-1.3.3-1.3 1.1 0 .6.4.8.7.8.5 0 .7-.3.7-.3v.3h.6l.3-2c0-1.1-.8-1.1-1-1.1zm.1 1.6c0 .1-.1.7-.5.7-.2 0-.3-.2-.3-.3 0-.2.1-.4.6-.4h.2z"/><path id="path4145" class="st1" d="M143.1 14.8c.2 0 1.1 0 1.1-.9s-.9-.7-.9-1.1c0-.2.1-.2.4-.2h.5l.1-.6s-.3-.1-.7-.1c-.5 0-1.1.2-1.1.9 0 .8.9.7.9 1.1 0 .2-.3.3-.4.3-.3 0-.6-.1-.6-.1l-.1.6s.1.1.8.1z"/><path id="path4139" class="st1" d="M157.5 11.3l-.2 1s-.3-.4-.7-.4c-.7 0-1.2.8-1.2 1.7 0 .6.3 1.2.9 1.2.4 0 .7-.3.7-.3v.3h.7l.6-3.5h-.8zm-.3 1.9c0 .4-.2.9-.6.9-.3 0-.4-.2-.4-.6 0-.6.3-.9.6-.9.2 0 .4.2.4.6z"/><path id="path4133" class="st1" d="M137.4 14.8l.4-2.6.1 2.6h.6l.9-2.6-.4 2.6h.7l.6-3.5h-1.2l-.7 2.1v-2.1h-1.1l-.6 3.5h.7z"/><path id="path4131" class="st1" d="M148.6 14.8c.2-1.2.3-2.2.8-2 .1-.5.2-.6.3-.8h-.1c-.3 0-.6.4-.6.4l.1-.4h-.7l-.5 2.8h.7z"/><g id="use8523" transform="translate(847.006)"><path id="path4149_1_" class="st1" d="M-693.8 11.9c-.5 0-.9.2-.9.2l-.1.6s.3-.1.8-.1c.3 0 .5 0 .5.3v.2h-.3c-.6 0-1.3.3-1.3 1.1 0 .6.4.8.7.8.5 0 .7-.3.7-.3v.3h.6l.3-2c0-1.1-.8-1.1-1-1.1zm.1 1.6c0 .1-.1.7-.5.7-.2 0-.3-.2-.3-.3 0-.2.1-.4.6-.4h.2z"/></g><g id="use8525" transform="translate(442.286)"><path id="path4131_1_" class="st1" d="M-287.5 14.8c.2-1.2.3-2.2.8-2 .1-.5.2-.6.3-.8h-.1c-.3 0-.6.4-.6.4l.1-.4h-.7l-.5 2.8h.7z"/></g><path id="text9407" class="st1" d="M158.2 14.3c.1 0 .2 0 .2.1v.2s0 .1-.1.1h-.2s-.1 0-.1-.1v-.2s0-.1.2-.1c-.1.1 0 0 0 0m0 .1c-.1 0-.1.1-.2.1v.2s0 .1.1.1h.2s.1 0 .1-.1v-.2c0-.1-.1-.1-.2-.1.1 0 0 0 0 0m-.1.3v-.2h.2l-.2.2.1-.1-.1.1m.1-.1c.1 0 .1 0 0 0 .1-.1.1-.1 0 0 0-.1 0-.1 0 0 0-.1 0-.1 0 0"/></g></g></g><g id="layer1_1_"><g id="g10305_1_"><path id="path2268_1_" class="st15" d="M138.9 39c0 3.8-3.1 6.8-6.8 6.8-3.8 0-6.8-3.1-6.8-6.8 0-3.8 3.1-6.8 6.8-6.8 3.7 0 6.8 3 6.8 6.8z"/><path id="path1350_1_" class="st16" d="M122.9 32.2c-3.7 0-6.8 3.1-6.8 6.8 0 3.8 3.1 6.8 6.8 6.8 1.8 0 3.4-.7 4.6-1.8l.7-.7h-1.4c-.2-.2-.4-.5-.5-.7h2.4c.1-.2.3-.5.4-.7h-3.2c-.1-.2-.2-.5-.3-.7h3.8c.2-.7.4-1.4.4-2.2 0-.5-.1-1-.2-1.5h-4.2c.1-.2.1-.5.2-.7h3.8c-.1-.3-.2-.5-.3-.7h-3.2c.1-.2.2-.5.4-.7h2.4c-.2-.3-.3-.5-.5-.7h-1.3c.2-.2.4-.5.7-.7-1.3-1.1-2.9-1.8-4.7-1.8z"/><path id="use9412_1_" class="st17" d="M138.2 42.6c.1 0 .2 0 .2.1v.2s0 .1-.1.1h-.2s-.1 0-.1-.1v-.2s0-.1.2-.1m0 0c-.1 0-.1.1-.2.1v.2s0 .1.1.1h.2s.1 0 .1-.1v-.2s-.1-.1-.2-.1c.1 0 0 0 0 0m-.1.3v-.2h.2l-.2.2c.1-.1.1-.1 0 0m.1-.1c.1 0 .1 0 0 0 .1-.1.1-.1 0 0 .1-.1 0-.1 0 0 0-.1 0-.1 0 0"/></g><g id="g16480_1_"><g id="g13802_1_" transform="translate(-13.744 15.994)"><path id="path13804_1_" class="st18" d="M138.9 25l.1-.6h-.2c-.3 0-.3-.1-.3-.2l.2-1.2h.4l.1-.7h-.4l.1-.4h-.8s-.4 2.4-.4 2.7c0 .4.2.6.6.6.4-.1.6-.2.6-.2z"/><path id="path13806_1_" class="st18" d="M139.2 23.8c0 1 .7 1.3 1.3 1.3.5 0 .8-.1.8-.1l.1-.7s-.5.2-.8.2c-.8 0-.6-.6-.6-.6h1.5s.1-.5.1-.7c0-.5-.3-1.1-1.1-1.1s-1.3.8-1.3 1.7zm1.2-1c.4 0 .3.5.3.5h-.8c.1-.1.1-.5.5-.5z"/><path id="path13808_1_" class="st18" d="M145 25l.1-.8s-.4.2-.6.2c-.5 0-.7-.4-.7-.8 0-.9.4-1.3.9-1.3.4 0 .7.2.7.2l.1-.8s-.4-.3-.7-.3c-1.1 0-1.8.8-1.8 2.2 0 .9.5 1.5 1.3 1.5.3 0 .7-.1.7-.1z"/><path id="path13810_3_" class="st18" d="M134.9 22.1c-.5 0-.9.2-.9.2l-.1.6s.3-.1.8-.1c.3 0 .5 0 .5.3v.2h-.3c-.7 0-1.3.3-1.3 1.1 0 .6.4.8.7.8.5 0 .7-.3.7-.3v.3h.6l.3-2c0-1.1-.7-1.1-1-1.1zm.1 1.6c0 .1 0 .7-.5.7-.2 0-.3-.2-.3-.3 0-.2.1-.4.6-.4h.2z"/><path id="path13812_1_" class="st18" d="M136.6 25c.2 0 1.1 0 1.1-.9s-.9-.7-.9-1.1c0-.2.1-.2.4-.2h.5l.1-.6s-.3-.1-.7-.1c-.5 0-1.1.2-1.1.9 0 .8.9.7.9 1.1 0 .2-.3.3-.5.3-.3 0-.6-.1-.6-.1l-.1.6c.1.1.3.1.9.1z"/><path id="path13814_1_" class="st18" d="M151 21.5l-.1 1s-.3-.4-.7-.4c-.8 0-1.2.8-1.2 1.7 0 .6.3 1.2.9 1.2.4 0 .7-.3.7-.3v.3h.7l.6-3.5h-.9zm-.3 1.9c0 .4-.2.9-.6.9-.3 0-.4-.2-.4-.6 0-.6.3-.9.6-.9s.4.2.4.6z"/><path id="path13816_1_" class="st18" d="M131 25l.4-2.6.1 2.6h.5l.9-2.6-.4 2.6h.7l.6-3.5h-1.2l-.7 2.1v-2.1h-1.1l-.6 3.5h.8z"/><path id="path13818_1_" class="st18" d="M142.2 25c.2-1.2.3-2.2.9-2 .1-.5.3-.9.4-1.1h-.2c-.3 0-.8.7-.8.7l.1-.4h-.7l-.5 2.8h.8z"/><g id="use14699_1_" transform="translate(845.3)"><path id="path13810_2_" class="st18" d="M-698.7 22.1c-.5 0-.9.2-.9.2l-.1.6s.3-.1.8-.1c.3 0 .5 0 .5.3v.2h-.3c-.7 0-1.3.3-1.3 1.1 0 .6.4.8.7.8.5 0 .7-.3.7-.3v.3h.6l.3-2c0-1.1-.8-1.1-1-1.1zm.1 1.6c0 .1 0 .7-.5.7-.2 0-.3-.2-.3-.3 0-.2.1-.4.6-.4h.2z"/></g><path id="use14701_1_" class="st18" d="M148.3 25c.1-.9.3-2.1.9-2 .1-.5 0-.5-.2-.5h-.4l.1-.4h-.7l-.5 2.9h.8z"/></g><g id="g10289_1_"><path id="path4157_1_" class="st1" d="M125.4 40.7l.1-.6h-.2c-.3 0-.3-.1-.3-.2l.2-1.3h.4l.1-.7h-.4l.1-.4h-.7s-.4 2.4-.4 2.7c0 .4.2.6.6.6.2 0 .4 0 .5-.1z"/><path id="path4155_1_" class="st1" d="M125.6 39.6c0 1 .7 1.3 1.3 1.3.5 0 .8-.1.8-.1l.1-.7s-.4.2-.8.2c-.8 0-.6-.6-.6-.6h1.5s.1-.5.1-.7c0-.5-.2-1.1-1-1.1-.9 0-1.4.8-1.4 1.7zm1.3-1.1c.4 0 .3.5.3.5h-.8s.1-.5.5-.5z"/><path id="path4151_1_" class="st1" d="M131.5 40.7l.1-.8s-.4.2-.6.2c-.5 0-.7-.4-.7-.8 0-.9.4-1.3.9-1.3.4 0 .7.2.7.2l.1-.8s-.4-.2-.8-.2c-.8 0-1.7.7-1.7 2.1 0 .9.4 1.5 1.3 1.5.3 0 .7-.1.7-.1z"/><path id="path4149_3_" class="st1" d="M121.4 37.9c-.5 0-.9.2-.9.2l-.1.6s.3-.1.8-.1c.3 0 .5 0 .5.3v.2h-.3c-.6 0-1.3.3-1.3 1.1 0 .6.4.8.7.8.5 0 .7-.3.7-.3v.3h.6l.3-2c0-1.1-.8-1.1-1-1.1zm.1 1.6c0 .1-.1.7-.5.7-.2 0-.3-.2-.3-.3 0-.2.1-.4.6-.4h.2z"/><path id="path4145_1_" class="st1" d="M123.1 40.8c.2 0 1.1 0 1.1-.9s-.9-.7-.9-1.1c0-.2.1-.2.4-.2h.5l.1-.6s-.3-.1-.7-.1c-.5 0-1.1.2-1.1.9 0 .8.9.7.9 1.1 0 .2-.3.3-.4.3-.3 0-.6-.1-.6-.1l-.1.6s.1.1.8.1z"/><path id="path4139_1_" class="st1" d="M137.5 37.3l-.2 1s-.3-.4-.7-.4c-.7 0-1.2.8-1.2 1.7 0 .6.3 1.2.9 1.2.4 0 .7-.3.7-.3v.3h.7l.6-3.5h-.8zm-.3 1.9c0 .4-.2.9-.6.9-.3 0-.4-.2-.4-.6 0-.6.3-.9.6-.9.2 0 .4.2.4.6z"/><path id="path4133_1_" class="st1" d="M117.4 40.8l.4-2.6.1 2.6h.6l.9-2.6-.4 2.6h.7l.6-3.5h-1.2l-.7 2.1v-2.1h-1.1l-.6 3.5h.7z"/><path id="path4131_3_" class="st1" d="M128.6 40.8c.2-1.2.3-2.2.8-2 .1-.5.2-.6.3-.8h-.1c-.3 0-.6.4-.6.4l.1-.4h-.7l-.5 2.8h.7z"/><g id="use8523_1_" transform="translate(847.006)"><path id="path4149_2_" class="st1" d="M-713.8 37.9c-.5 0-.9.2-.9.2l-.1.6s.3-.1.8-.1c.3 0 .5 0 .5.3v.2h-.3c-.6 0-1.3.3-1.3 1.1 0 .6.4.8.7.8.5 0 .7-.3.7-.3v.3h.6l.3-2c0-1.1-.8-1.1-1-1.1zm.1 1.6c0 .1-.1.7-.5.7-.2 0-.3-.2-.3-.3 0-.2.1-.4.6-.4h.2z"/></g><g id="use8525_1_" transform="translate(442.286)"><path id="path4131_2_" class="st1" d="M-307.5 40.8c.2-1.2.3-2.2.8-2 .1-.5.2-.6.3-.8h-.1c-.3 0-.6.4-.6.4l.1-.4h-.7l-.5 2.8h.7z"/></g><path id="text9407_1_" class="st1" d="M138.2 40.3c.1 0 .2 0 .2.1v.2s0 .1-.1.1h-.2s-.1 0-.1-.1v-.2s0-.1.2-.1c-.1.1 0 0 0 0m0 .1c-.1 0-.1.1-.2.1v.2s0 .1.1.1h.2s.1 0 .1-.1v-.2c0-.1-.1-.1-.2-.1.1 0 0 0 0 0m-.1.3v-.2h.2l-.2.2c.1-.1.1-.1 0 0m.1-.1c.1 0 .1 0 0 0 .1-.1.1-.1 0 0 0-.1 0-.1 0 0 0-.1 0-.1 0 0"/></g></g></g></svg>